<?xml version="1.0" encoding="UTF-8" standalone="no"?>
<!DOCTYPE svg PUBLIC "-//W3C//DTD SVG 1.1//EN"
 "http://www.w3.org/Graphics/SVG/1.1/DTD/svg11.dtd">
<!-- Generated by graphviz version 2.40.1 (20161225.0304)
 -->
<!-- Title: snakemake_dag Pages: 1 -->
<svg width="322pt" height="332pt"
 viewBox="0.00 0.00 322.43 332.00" xmlns="http://www.w3.org/2000/svg" xmlns:xlink="http://www.w3.org/1999/xlink">
<g id="graph0" class="graph" transform="scale(1 1) rotate(0) translate(4 328)">
<title>snakemake_dag</title>
<polygon fill="#ffffff" stroke="transparent" points="-4,4 -4,-328 318.4316,-328 318.4316,4 -4,4"/>
<!-- 1 -->
<g id="node1" class="node">
<title>1</title>
<path fill="none" stroke="#56d86b" stroke-width="2" d="M161.9316,-180C161.9316,-180 59.9316,-180 59.9316,-180 53.9316,-180 47.9316,-174 47.9316,-168 47.9316,-168 47.9316,-156 47.9316,-156 47.9316,-150 53.9316,-144 59.9316,-144 59.9316,-144 161.9316,-144 161.9316,-144 167.9316,-144 173.9316,-150 173.9316,-156 173.9316,-156 173.9316,-168 173.9316,-168 173.9316,-174 167.9316,-180 161.9316,-180"/>
<text text-anchor="middle" x="110.9316" y="-159.5" font-family="sans" font-size="10.00" fill="#000000">plot_barcode_distance</text>
</g>
<!-- 3 -->
<g id="node3" class="node">
<title>3</title>
<path fill="none" stroke="#70d856" stroke-width="2" d="M180.9316,-36C180.9316,-36 84.9316,-36 84.9316,-36 78.9316,-36 72.9316,-30 72.9316,-24 72.9316,-24 72.9316,-12 72.9316,-12 72.9316,-6 78.9316,0 84.9316,0 84.9316,0 180.9316,0 180.9316,0 186.9316,0 192.9316,-6 192.9316,-12 192.9316,-12 192.9316,-24 192.9316,-24 192.9316,-30 186.9316,-36 180.9316,-36"/>
<text text-anchor="middle" x="132.9316" y="-15.5" font-family="sans" font-size="10.00" fill="#000000">plot_adaptor_content</text>
</g>
<!-- 1&#45;&gt;3 -->
<g id="edge5" class="edge">
<title>1&#45;&gt;3</title>
<path fill="none" stroke="#c0c0c0" stroke-width="2" d="M79.4756,-143.9802C66.9004,-134.9479 53.7928,-122.7662 46.9316,-108 40.1895,-93.4899 39.19,-86.0024 46.9316,-72 54.0011,-59.2134 65.5063,-49.0464 77.8344,-41.1429"/>
<polygon fill="#c0c0c0" stroke="#c0c0c0" stroke-width="2" points="79.6412,-44.1406 86.4563,-36.0285 76.0699,-38.1201 79.6412,-44.1406"/>
</g>
<!-- 4 -->
<g id="node4" class="node">
<title>4</title>
<path fill="none" stroke="#d85656" stroke-width="2" d="M153.9316,-108C153.9316,-108 67.9316,-108 67.9316,-108 61.9316,-108 55.9316,-102 55.9316,-96 55.9316,-96 55.9316,-84 55.9316,-84 55.9316,-78 61.9316,-72 67.9316,-72 67.9316,-72 153.9316,-72 153.9316,-72 159.9316,-72 165.9316,-78 165.9316,-84 165.9316,-84 165.9316,-96 165.9316,-96 165.9316,-102 159.9316,-108 153.9316,-108"/>
<text text-anchor="middle" x="110.9316" y="-93" font-family="sans" font-size="10.00" fill="#000000">combine_step_logs</text>
<text text-anchor="middle" x="110.9316" y="-82" font-family="sans" font-size="10.00" fill="#000000">step: filter</text>
</g>
<!-- 1&#45;&gt;4 -->
<g id="edge6" class="edge">
<title>1&#45;&gt;4</title>
<path fill="none" stroke="#c0c0c0" stroke-width="2" d="M110.9316,-143.8314C110.9316,-136.131 110.9316,-126.9743 110.9316,-118.4166"/>
<polygon fill="#c0c0c0" stroke="#c0c0c0" stroke-width="2" points="114.4317,-118.4132 110.9316,-108.4133 107.4317,-118.4133 114.4317,-118.4132"/>
</g>
<!-- 7 -->
<g id="node7" class="node">
<title>7</title>
<path fill="none" stroke="#d85656" stroke-width="2" d="M281.9316,-108C281.9316,-108 195.9316,-108 195.9316,-108 189.9316,-108 183.9316,-102 183.9316,-96 183.9316,-96 183.9316,-84 183.9316,-84 183.9316,-78 189.9316,-72 195.9316,-72 195.9316,-72 281.9316,-72 281.9316,-72 287.9316,-72 293.9316,-78 293.9316,-84 293.9316,-84 293.9316,-96 293.9316,-96 293.9316,-102 287.9316,-108 281.9316,-108"/>
<text text-anchor="middle" x="238.9316" y="-93" font-family="sans" font-size="10.00" fill="#000000">combine_step_logs</text>
<text text-anchor="middle" x="238.9316" y="-82" font-family="sans" font-size="10.00" fill="#000000">step: trim</text>
</g>
<!-- 1&#45;&gt;7 -->
<g id="edge8" class="edge">
<title>1&#45;&gt;7</title>
<path fill="none" stroke="#c0c0c0" stroke-width="2" d="M143.2315,-143.8314C159.755,-134.5368 180.0502,-123.1208 197.6923,-113.1971"/>
<polygon fill="#c0c0c0" stroke="#c0c0c0" stroke-width="2" points="199.6423,-116.116 206.6422,-108.1628 196.2105,-110.015 199.6423,-116.116"/>
</g>
<!-- 2 -->
<g id="node2" class="node">
<title>2</title>
<path fill="none" stroke="#d8b456" stroke-width="2" d="M124.9316,-252C124.9316,-252 26.9316,-252 26.9316,-252 20.9316,-252 14.9316,-246 14.9316,-240 14.9316,-240 14.9316,-228 14.9316,-228 14.9316,-222 20.9316,-216 26.9316,-216 26.9316,-216 124.9316,-216 124.9316,-216 130.9316,-216 136.9316,-222 136.9316,-228 136.9316,-228 136.9316,-240 136.9316,-240 136.9316,-246 130.9316,-252 124.9316,-252"/>
<text text-anchor="middle" x="75.9316" y="-231.5" font-family="sans" font-size="10.00" fill="#000000">plot_barcode_content</text>
</g>
<!-- 5 -->
<g id="node5" class="node">
<title>5</title>
<path fill="none" stroke="#9fd856" stroke-width="2" d="M101.4316,-324C101.4316,-324 50.4316,-324 50.4316,-324 44.4316,-324 38.4316,-318 38.4316,-312 38.4316,-312 38.4316,-300 38.4316,-300 38.4316,-294 44.4316,-288 50.4316,-288 50.4316,-288 101.4316,-288 101.4316,-288 107.4316,-288 113.4316,-294 113.4316,-300 113.4316,-300 113.4316,-312 113.4316,-312 113.4316,-318 107.4316,-324 101.4316,-324"/>
<text text-anchor="middle" x="75.9316" y="-303.5" font-family="sans" font-size="10.00" fill="#000000">demultiplex</text>
</g>
<!-- 5&#45;&gt;1 -->
<g id="edge1" class="edge">
<title>5&#45;&gt;1</title>
<path fill="none" stroke="#c0c0c0" stroke-width="2" d="M40.4962,-287.8842C27.0976,-279.0325 13.3118,-267.0142 5.9316,-252 -1.1265,-237.6409 -2.4026,-229.658 5.9316,-216 14.0774,-202.6509 26.6929,-192.4624 40.3908,-184.7362"/>
<polygon fill="#c0c0c0" stroke="#c0c0c0" stroke-width="2" points="42.2462,-187.7168 49.5124,-180.0062 39.0238,-181.5026 42.2462,-187.7168"/>
</g>
<!-- 5&#45;&gt;2 -->
<g id="edge3" class="edge">
<title>5&#45;&gt;2</title>
<path fill="none" stroke="#c0c0c0" stroke-width="2" d="M75.9316,-287.8314C75.9316,-280.131 75.9316,-270.9743 75.9316,-262.4166"/>
<polygon fill="#c0c0c0" stroke="#c0c0c0" stroke-width="2" points="79.4317,-262.4132 75.9316,-252.4133 72.4317,-262.4133 79.4317,-262.4132"/>
</g>
<!-- 6 -->
<g id="node6" class="node">
<title>6</title>
<path fill="none" stroke="#d88556" stroke-width="2" d="M302.4316,-252C302.4316,-252 167.4316,-252 167.4316,-252 161.4316,-252 155.4316,-246 155.4316,-240 155.4316,-240 155.4316,-228 155.4316,-228 155.4316,-222 161.4316,-216 167.4316,-216 167.4316,-216 302.4316,-216 302.4316,-216 308.4316,-216 314.4316,-222 314.4316,-228 314.4316,-228 314.4316,-240 314.4316,-240 314.4316,-246 308.4316,-252 302.4316,-252"/>
<text text-anchor="middle" x="234.9316" y="-231.5" font-family="sans" font-size="10.00" fill="#000000">calculate_hamming_distance</text>
</g>
<!-- 5&#45;&gt;6 -->
<g id="edge7" class="edge">
<title>5&#45;&gt;6</title>
<path fill="none" stroke="#c0c0c0" stroke-width="2" d="M113.6124,-288.937C135.1627,-279.1784 162.4442,-266.8245 185.6761,-256.3044"/>
<polygon fill="#c0c0c0" stroke="#c0c0c0" stroke-width="2" points="187.3567,-259.3856 195.0225,-252.0721 184.4691,-253.0089 187.3567,-259.3856"/>
</g>
<!-- 6&#45;&gt;1 -->
<g id="edge2" class="edge">
<title>6&#45;&gt;1</title>
<path fill="none" stroke="#c0c0c0" stroke-width="2" d="M203.6412,-215.8314C187.634,-206.5368 167.973,-195.1208 150.8822,-185.1971"/>
<polygon fill="#c0c0c0" stroke="#c0c0c0" stroke-width="2" points="152.6175,-182.1575 142.2121,-180.1628 149.1025,-188.211 152.6175,-182.1575"/>
</g>
<!-- 7&#45;&gt;3 -->
<g id="edge4" class="edge">
<title>7&#45;&gt;3</title>
<path fill="none" stroke="#c0c0c0" stroke-width="2" d="M212.1834,-71.8314C198.8764,-62.7927 182.6156,-51.7476 168.2942,-42.0198"/>
<polygon fill="#c0c0c0" stroke="#c0c0c0" stroke-width="2" points="169.9102,-38.8864 159.6714,-36.1628 165.9769,-44.677 169.9102,-38.8864"/>
</g>
</g>
</svg>
