<?xml version="1.0" encoding="UTF-8" standalone="no"?>
<!DOCTYPE svg PUBLIC "-//W3C//DTD SVG 1.1//EN"
 "http://www.w3.org/Graphics/SVG/1.1/DTD/svg11.dtd">
<!-- Generated by graphviz version 2.40.1 (20161225.0304)
 -->
<!-- Title: snakemake_dag Pages: 1 -->
<svg width="364pt" height="404pt"
 viewBox="0.00 0.00 363.91 404.00" xmlns="http://www.w3.org/2000/svg" xmlns:xlink="http://www.w3.org/1999/xlink">
<g id="graph0" class="graph" transform="scale(1 1) rotate(0) translate(4 400)">
<title>snakemake_dag</title>
<polygon fill="#ffffff" stroke="transparent" points="-4,4 -4,-400 359.9094,-400 359.9094,4 -4,4"/>
<!-- 0 -->
<g id="node1" class="node">
<title>0</title>
<path fill="none" stroke="#d8b456" stroke-width="2" d="M159.9094,-36C159.9094,-36 129.9094,-36 129.9094,-36 123.9094,-36 117.9094,-30 117.9094,-24 117.9094,-24 117.9094,-12 117.9094,-12 117.9094,-6 123.9094,0 129.9094,0 129.9094,0 159.9094,0 159.9094,0 165.9094,0 171.9094,-6 171.9094,-12 171.9094,-12 171.9094,-24 171.9094,-24 171.9094,-30 165.9094,-36 159.9094,-36"/>
<text text-anchor="middle" x="144.9094" y="-15.5" font-family="sans" font-size="10.00" fill="#000000">target</text>
</g>
<!-- 1 -->
<g id="node2" class="node">
<title>1</title>
<path fill="none" stroke="#5682d8" stroke-width="2" d="M149.9094,-252C149.9094,-252 47.9094,-252 47.9094,-252 41.9094,-252 35.9094,-246 35.9094,-240 35.9094,-240 35.9094,-228 35.9094,-228 35.9094,-222 41.9094,-216 47.9094,-216 47.9094,-216 149.9094,-216 149.9094,-216 155.9094,-216 161.9094,-222 161.9094,-228 161.9094,-228 161.9094,-240 161.9094,-240 161.9094,-246 155.9094,-252 149.9094,-252"/>
<text text-anchor="middle" x="98.9094" y="-231.5" font-family="sans" font-size="10.00" fill="#000000">plot_barcode_distance</text>
</g>
<!-- 1&#45;&gt;0 -->
<g id="edge1" class="edge">
<title>1&#45;&gt;0</title>
<path fill="none" stroke="#c0c0c0" stroke-width="2" d="M75.6659,-215.8673C39.2631,-185.2271 -23.7329,-121.6907 9.9094,-72 31.5878,-39.9802 75.6595,-26.9453 107.5634,-21.6398"/>
<polygon fill="#c0c0c0" stroke="#c0c0c0" stroke-width="2" points="108.4841,-25.042 117.8666,-20.1207 107.463,-18.1169 108.4841,-25.042"/>
</g>
<!-- 3 -->
<g id="node4" class="node">
<title>3</title>
<path fill="none" stroke="#56d89a" stroke-width="2" d="M126.9094,-108C126.9094,-108 30.9094,-108 30.9094,-108 24.9094,-108 18.9094,-102 18.9094,-96 18.9094,-96 18.9094,-84 18.9094,-84 18.9094,-78 24.9094,-72 30.9094,-72 30.9094,-72 126.9094,-72 126.9094,-72 132.9094,-72 138.9094,-78 138.9094,-84 138.9094,-84 138.9094,-96 138.9094,-96 138.9094,-102 132.9094,-108 126.9094,-108"/>
<text text-anchor="middle" x="78.9094" y="-87.5" font-family="sans" font-size="10.00" fill="#000000">plot_adaptor_content</text>
</g>
<!-- 1&#45;&gt;3 -->
<g id="edge9" class="edge">
<title>1&#45;&gt;3</title>
<path fill="none" stroke="#c0c0c0" stroke-width="2" d="M77.5967,-215.7308C68.096,-206.1756 57.9304,-193.6372 52.9094,-180 45.253,-159.2051 53.1113,-135.0515 62.1385,-117.0049"/>
<polygon fill="#c0c0c0" stroke="#c0c0c0" stroke-width="2" points="65.2337,-118.6391 66.8897,-108.1745 59.0693,-115.3224 65.2337,-118.6391"/>
</g>
<!-- 4 -->
<g id="node5" class="node">
<title>4</title>
<path fill="none" stroke="#9fd856" stroke-width="2" d="M254.9094,-108C254.9094,-108 168.9094,-108 168.9094,-108 162.9094,-108 156.9094,-102 156.9094,-96 156.9094,-96 156.9094,-84 156.9094,-84 156.9094,-78 162.9094,-72 168.9094,-72 168.9094,-72 254.9094,-72 254.9094,-72 260.9094,-72 266.9094,-78 266.9094,-84 266.9094,-84 266.9094,-96 266.9094,-96 266.9094,-102 260.9094,-108 254.9094,-108"/>
<text text-anchor="middle" x="211.9094" y="-93" font-family="sans" font-size="10.00" fill="#000000">combine_step_logs</text>
<text text-anchor="middle" x="211.9094" y="-82" font-family="sans" font-size="10.00" fill="#000000">step: filter</text>
</g>
<!-- 1&#45;&gt;4 -->
<g id="edge10" class="edge">
<title>1&#45;&gt;4</title>
<path fill="none" stroke="#c0c0c0" stroke-width="2" d="M137.2821,-215.795C152.6555,-206.8647 169.4121,-194.8117 180.9094,-180 194.9314,-161.9358 202.8521,-137.1047 207.1706,-118.0999"/>
<polygon fill="#c0c0c0" stroke="#c0c0c0" stroke-width="2" points="210.6157,-118.7229 209.215,-108.2211 203.761,-117.3043 210.6157,-118.7229"/>
</g>
<!-- 7 -->
<g id="node8" class="node">
<title>7</title>
<path fill="none" stroke="#9fd856" stroke-width="2" d="M159.9094,-180C159.9094,-180 73.9094,-180 73.9094,-180 67.9094,-180 61.9094,-174 61.9094,-168 61.9094,-168 61.9094,-156 61.9094,-156 61.9094,-150 67.9094,-144 73.9094,-144 73.9094,-144 159.9094,-144 159.9094,-144 165.9094,-144 171.9094,-150 171.9094,-156 171.9094,-156 171.9094,-168 171.9094,-168 171.9094,-174 165.9094,-180 159.9094,-180"/>
<text text-anchor="middle" x="116.9094" y="-165" font-family="sans" font-size="10.00" fill="#000000">combine_step_logs</text>
<text text-anchor="middle" x="116.9094" y="-154" font-family="sans" font-size="10.00" fill="#000000">step: trim</text>
</g>
<!-- 1&#45;&gt;7 -->
<g id="edge12" class="edge">
<title>1&#45;&gt;7</title>
<path fill="none" stroke="#c0c0c0" stroke-width="2" d="M103.4515,-215.8314C105.3978,-208.0463 107.7161,-198.7729 109.8757,-190.1347"/>
<polygon fill="#c0c0c0" stroke="#c0c0c0" stroke-width="2" points="113.2761,-190.9636 112.3061,-180.4133 106.4851,-189.2658 113.2761,-190.9636"/>
</g>
<!-- 2 -->
<g id="node3" class="node">
<title>2</title>
<path fill="none" stroke="#ced856" stroke-width="2" d="M343.9094,-252C343.9094,-252 245.9094,-252 245.9094,-252 239.9094,-252 233.9094,-246 233.9094,-240 233.9094,-240 233.9094,-228 233.9094,-228 233.9094,-222 239.9094,-216 245.9094,-216 245.9094,-216 343.9094,-216 343.9094,-216 349.9094,-216 355.9094,-222 355.9094,-228 355.9094,-228 355.9094,-240 355.9094,-240 355.9094,-246 349.9094,-252 343.9094,-252"/>
<text text-anchor="middle" x="294.9094" y="-231.5" font-family="sans" font-size="10.00" fill="#000000">plot_barcode_content</text>
</g>
<!-- 2&#45;&gt;0 -->
<g id="edge2" class="edge">
<title>2&#45;&gt;0</title>
<path fill="none" stroke="#c0c0c0" stroke-width="2" d="M298.25,-215.801C303.1268,-183.3507 308.3969,-114.8883 275.9094,-72 253.6537,-42.6192 212.5742,-29.1325 182.3297,-22.9994"/>
<polygon fill="#c0c0c0" stroke="#c0c0c0" stroke-width="2" points="182.6007,-19.4906 172.1323,-21.1227 181.3336,-26.375 182.6007,-19.4906"/>
</g>
<!-- 3&#45;&gt;0 -->
<g id="edge3" class="edge">
<title>3&#45;&gt;0</title>
<path fill="none" stroke="#c0c0c0" stroke-width="2" d="M95.564,-71.8314C103.3208,-63.3694 112.6895,-53.1489 121.1704,-43.8971"/>
<polygon fill="#c0c0c0" stroke="#c0c0c0" stroke-width="2" points="123.8533,-46.1499 128.0306,-36.4133 118.6932,-41.4198 123.8533,-46.1499"/>
</g>
<!-- 4&#45;&gt;0 -->
<g id="edge4" class="edge">
<title>4&#45;&gt;0</title>
<path fill="none" stroke="#c0c0c0" stroke-width="2" d="M195.0024,-71.8314C187.1281,-63.3694 177.6174,-53.1489 169.0081,-43.8971"/>
<polygon fill="#c0c0c0" stroke="#c0c0c0" stroke-width="2" points="171.4185,-41.3497 162.0439,-36.4133 166.294,-46.1183 171.4185,-41.3497"/>
</g>
<!-- 5 -->
<g id="node6" class="node">
<title>5</title>
<path fill="none" stroke="#56d86b" stroke-width="2" d="M213.4094,-396C213.4094,-396 162.4094,-396 162.4094,-396 156.4094,-396 150.4094,-390 150.4094,-384 150.4094,-384 150.4094,-372 150.4094,-372 150.4094,-366 156.4094,-360 162.4094,-360 162.4094,-360 213.4094,-360 213.4094,-360 219.4094,-360 225.4094,-366 225.4094,-372 225.4094,-372 225.4094,-384 225.4094,-384 225.4094,-390 219.4094,-396 213.4094,-396"/>
<text text-anchor="middle" x="187.9094" y="-375.5" font-family="sans" font-size="10.00" fill="#000000">demultiplex</text>
</g>
<!-- 5&#45;&gt;1 -->
<g id="edge5" class="edge">
<title>5&#45;&gt;1</title>
<path fill="none" stroke="#c0c0c0" stroke-width="2" d="M150.1375,-364.9492C131.5228,-356.3947 110.7832,-343.1796 99.9094,-324 89.3594,-305.3915 89.8065,-280.949 92.5063,-262.2329"/>
<polygon fill="#c0c0c0" stroke="#c0c0c0" stroke-width="2" points="95.9807,-262.6807 94.2359,-252.2305 89.0831,-261.4879 95.9807,-262.6807"/>
</g>
<!-- 5&#45;&gt;2 -->
<g id="edge7" class="edge">
<title>5&#45;&gt;2</title>
<path fill="none" stroke="#c0c0c0" stroke-width="2" d="M225.5834,-363.7264C243.7869,-354.9497 264.3563,-341.9067 276.9094,-324 289.5077,-306.0288 293.76,-281.3432 295.0003,-262.3703"/>
<polygon fill="#c0c0c0" stroke="#c0c0c0" stroke-width="2" points="298.5035,-262.361 295.4182,-252.2254 291.5095,-262.0729 298.5035,-262.361"/>
</g>
<!-- 6 -->
<g id="node7" class="node">
<title>6</title>
<path fill="none" stroke="#56b1d8" stroke-width="2" d="M255.4094,-324C255.4094,-324 120.4094,-324 120.4094,-324 114.4094,-324 108.4094,-318 108.4094,-312 108.4094,-312 108.4094,-300 108.4094,-300 108.4094,-294 114.4094,-288 120.4094,-288 120.4094,-288 255.4094,-288 255.4094,-288 261.4094,-288 267.4094,-294 267.4094,-300 267.4094,-300 267.4094,-312 267.4094,-312 267.4094,-318 261.4094,-324 255.4094,-324"/>
<text text-anchor="middle" x="187.9094" y="-303.5" font-family="sans" font-size="10.00" fill="#000000">calculate_hamming_distance</text>
</g>
<!-- 5&#45;&gt;6 -->
<g id="edge11" class="edge">
<title>5&#45;&gt;6</title>
<path fill="none" stroke="#c0c0c0" stroke-width="2" d="M187.9094,-359.8314C187.9094,-352.131 187.9094,-342.9743 187.9094,-334.4166"/>
<polygon fill="#c0c0c0" stroke="#c0c0c0" stroke-width="2" points="191.4095,-334.4132 187.9094,-324.4133 184.4095,-334.4133 191.4095,-334.4132"/>
</g>
<!-- 6&#45;&gt;1 -->
<g id="edge6" class="edge">
<title>6&#45;&gt;1</title>
<path fill="none" stroke="#c0c0c0" stroke-width="2" d="M165.4509,-287.8314C154.4889,-278.9632 141.1395,-268.1637 129.2829,-258.5718"/>
<polygon fill="#c0c0c0" stroke="#c0c0c0" stroke-width="2" points="131.3365,-255.7313 121.3607,-252.1628 126.9338,-261.1734 131.3365,-255.7313"/>
</g>
<!-- 7&#45;&gt;3 -->
<g id="edge8" class="edge">
<title>7&#45;&gt;3</title>
<path fill="none" stroke="#c0c0c0" stroke-width="2" d="M107.3204,-143.8314C103.0776,-135.7925 97.9973,-126.1666 93.3134,-117.2918"/>
<polygon fill="#c0c0c0" stroke="#c0c0c0" stroke-width="2" points="96.3905,-115.6235 88.6275,-108.4133 90.1998,-118.8908 96.3905,-115.6235"/>
</g>
</g>
</svg>
